<svg width="56" height="24" viewBox="0 0 56 24" fill="none" xmlns="http://www.w3.org/2000/svg">
<g clip-path="url(#clip0_50_893)">
<path d="M4.0458 0.406583L4.15827 2.36112C5.45079 0.162099 7.81042 0.135825 8.48525 0.135825C12.166 0.135825 14.3855 2.79576 14.3855 6.9756C14.3855 10.8575 12.3061 14.3039 8.20407 14.3039C5.64716 14.3039 4.6077 13.0013 4.24263 12.54V19.3806H0V0.406583H4.0458ZM10.171 7.13859C10.171 5.50958 9.74965 2.71382 7.30521 2.71382C5.95646 2.71382 4.0458 3.69042 4.0458 7.38174C4.0458 8.19624 4.07392 11.6711 7.1365 11.6711C9.10339 11.6716 10.171 9.85241 10.171 7.13859ZM25.1451 14.1142C25.004 13.273 25.004 12.6486 25.004 12.2411C23.4303 14.4402 21.5482 14.4402 20.7614 14.4402C18.7106 14.4402 17.7836 13.8706 17.2213 13.3545C16.3782 12.54 15.985 11.4271 15.985 10.3409C15.985 9.25523 16.3782 7.2468 18.9913 6.0796C20.7333 5.31943 23.234 5.31943 24.6108 5.31943C24.6108 4.42388 24.5823 3.98968 24.4145 3.50071C24.0489 2.4965 22.9532 2.36068 22.5605 2.36068C21.97 2.36068 21.3519 2.60516 20.9863 3.12085C20.677 3.58221 20.677 4.01685 20.677 4.34238H16.6036C16.6317 3.60937 16.7161 2.14336 18.2054 1.11198C19.4975 0.216429 21.1551 0 22.5043 0C23.6843 0 26.1569 0.189709 27.5614 1.76438C28.5174 2.87726 28.5455 4.50537 28.5455 5.13017L28.5737 10.6406C28.5737 11.8074 28.658 12.9746 28.9102 14.1146L25.1451 14.1142ZM20.0317 9.88002C20.0317 10.8032 20.6775 11.835 22.0544 11.835C22.8131 11.835 23.4303 11.4814 23.8249 11.0472C24.5555 10.1788 24.6113 9.12029 24.6113 7.65428C21.9424 7.43696 20.0317 8.25102 20.0317 9.88002ZM31.4334 3.77281C31.4334 3.1213 31.3209 1.14004 31.2366 0.352254H35.1418L35.2271 2.98503C35.7604 1.81871 36.6878 0.162099 40.0593 0.325089V3.93535C35.8443 3.55504 35.5922 5.64541 35.5922 7.35546V14.1142H31.4339L31.4334 3.77281ZM49.6568 5.2651C49.6006 4.77658 49.4323 2.74099 47.8305 2.74099C45.8631 2.74099 45.6391 5.61824 45.6391 7.11098C45.6391 7.87115 45.7239 10.3138 46.6786 11.318C47.0718 11.7255 47.494 11.7798 47.8024 11.7798C48.2518 11.7798 49.5443 11.5896 49.713 9.14612H53.8146C53.7588 10.206 53.6182 11.8613 51.9888 13.1906C50.9774 14.0331 49.7126 14.4669 47.943 14.4669C46.0604 14.4669 44.4019 14.0594 43.1103 12.6482C41.874 11.2645 41.3126 9.44538 41.3126 7.24636C41.3126 1.00332 46.0609 0.134934 47.9434 0.134934C50.5842 0.134934 53.7031 1.54573 53.7316 5.26465H49.6568V5.2651ZM54.9098 0.352254C55.504 0.352254 56 0.804706 56 1.39654C56 1.99996 55.504 2.45108 54.9098 2.45108C54.3157 2.45108 53.8151 1.99996 53.8151 1.39654C53.8151 0.804706 54.3157 0.352254 54.9098 0.352254ZM54.9098 2.29789C55.4146 2.29789 55.8032 1.90956 55.8032 1.39654C55.8032 0.893771 55.4146 0.506782 54.9098 0.506782C54.4009 0.506782 54.0124 0.893771 54.0124 1.39654C54.0119 1.90956 54.4005 2.29789 54.9098 2.29789ZM54.4867 0.788229H54.9776C55.2795 0.788229 55.422 0.903568 55.422 1.13915C55.422 1.36047 55.2772 1.4531 55.0878 1.47181L55.4505 2.01555H55.238L54.8932 1.48695H54.6821V2.01555H54.4862L54.4867 0.788229ZM54.6821 1.33108H54.8886C55.0643 1.33108 55.2238 1.32351 55.2238 1.13113C55.2238 0.967695 55.0795 0.94053 54.9449 0.94053H54.6826L54.6821 1.33108ZM18.5562 22.8021L18.1607 21.7382H16.7741L16.3616 22.8087C16.3353 22.8742 16.3201 22.8796 16.2519 22.8796H16.0255C15.9831 22.8796 15.9831 22.8337 15.9993 22.7923L17.3443 19.4309C17.3545 19.4007 17.3808 19.3806 17.4126 19.3806H17.602C17.6334 19.3806 17.65 19.3904 17.6652 19.426L18.9766 22.7976C18.9978 22.8542 18.9872 22.88 18.924 22.88H18.677C18.5977 22.88 18.5825 22.8747 18.5562 22.8021ZM18.0648 21.4741L17.4863 19.8959L16.8742 21.4741H18.0648ZM20.7831 22.7976C20.7503 22.8542 20.7084 22.88 20.6448 22.88H20.4401C20.3608 22.88 20.3511 22.8497 20.3926 22.778L21.4833 21.0617L20.4927 19.463C20.4715 19.4318 20.4761 19.3811 20.5291 19.3811H20.7771C20.8259 19.3811 20.8623 19.4011 20.8836 19.4376L21.6856 20.7415L22.4582 19.4483C22.4844 19.406 22.5172 19.3815 22.5706 19.3815H22.7965C22.8551 19.3815 22.8647 19.4216 22.8389 19.4635L21.8589 21.0212L22.9334 22.7477C22.9703 22.8101 22.9915 22.8809 22.8965 22.8809H22.6707C22.6025 22.8809 22.5651 22.8551 22.5222 22.7887L21.6584 21.3476L20.7831 22.7976ZM25.217 21.6629H24.7523H23.546C23.546 22.2022 23.8244 22.6507 24.4311 22.6507C24.6578 22.6507 24.9317 22.5994 25.0893 22.534C25.1322 22.5135 25.17 22.5184 25.1801 22.5692L25.2064 22.6858C25.217 22.7322 25.2119 22.7624 25.1584 22.7829C24.9469 22.8804 24.621 22.9259 24.3997 22.9259C23.593 22.9259 23.1966 22.4013 23.1966 21.6478C23.1966 20.9393 23.6461 20.375 24.384 20.375C25.0045 20.375 25.3645 20.8328 25.3645 21.4282V21.5249C25.3645 21.6375 25.3484 21.6629 25.217 21.6629ZM24.373 20.6235C23.877 20.6235 23.6032 21.0105 23.5562 21.4331H25.0206C25.0261 21.398 25.0261 21.3672 25.0261 21.3312C25.0261 20.9437 24.815 20.6235 24.373 20.6235ZM27.0308 20.3893C27.0686 20.3942 27.0788 20.4196 27.0742 20.445L27.047 20.6133C27.0424 20.6436 27.0207 20.6592 26.9949 20.6538C26.9419 20.644 26.8833 20.6338 26.8239 20.6338C26.6349 20.6338 26.4251 20.7718 26.2882 20.9749V22.7878C26.2882 22.8497 26.262 22.88 26.2034 22.88H26.0352C25.9753 22.88 25.9494 22.8497 25.9494 22.7878V20.5162C25.9494 20.4552 25.9753 20.4249 26.0352 20.4249H26.1984C26.256 20.4249 26.2823 20.4552 26.2823 20.5162L26.2882 20.6943C26.3933 20.5416 26.6141 20.3741 26.8773 20.3741C26.9156 20.3746 26.9788 20.379 27.0308 20.3893ZM28.4391 22.9254C27.6485 22.9254 27.3005 22.3643 27.3005 21.6473C27.3005 20.9388 27.7117 20.3746 28.4704 20.3746C29.2619 20.3746 29.6209 20.9143 29.6209 21.6473C29.6209 22.3599 29.2033 22.9254 28.4391 22.9254ZM28.4704 20.6235C27.8449 20.6235 27.6485 21.1642 27.6485 21.6375C27.6485 22.1359 27.8288 22.6809 28.4446 22.6809C29.0567 22.6809 29.2725 22.167 29.2725 21.658C29.272 21.1539 29.0719 20.6235 28.4704 20.6235ZM30.2243 22.8341C30.2036 22.8644 30.1769 22.88 30.1243 22.88H29.8878C29.851 22.88 29.845 22.8448 29.8722 22.8092L30.742 21.6166L29.9777 20.4957C29.9561 20.4654 29.9616 20.4249 30.0137 20.4249H30.2718C30.3244 20.4249 30.3571 20.445 30.3783 20.4801L30.9471 21.3312L31.5436 20.4864C31.5745 20.445 31.6109 20.4249 31.6538 20.4249H31.8635C31.9059 20.4249 31.9317 20.4552 31.9004 20.4957L31.1098 21.5712L31.958 22.7923C31.9852 22.8292 31.9949 22.8796 31.9317 22.8796H31.6538C31.6007 22.8796 31.5745 22.8537 31.5482 22.8185L30.9042 21.8549L30.2243 22.8341ZM36.2366 22.5843C36.2633 22.6404 36.2472 22.6707 36.1845 22.701C35.8738 22.8546 35.5355 22.9259 35.1888 22.9259C34.0867 22.9259 33.5852 22.0855 33.5852 21.1281C33.5852 20.2009 34.1604 19.325 35.2142 19.325C35.5502 19.325 35.8789 19.3909 36.1628 19.5596C36.2214 19.5895 36.2315 19.6207 36.2057 19.6719L36.1365 19.793C36.1107 19.8389 36.0789 19.8438 36.037 19.8193C35.8 19.6763 35.5299 19.6055 35.2409 19.6055C34.8837 19.6055 34.5601 19.7578 34.3444 20.0125C34.0867 20.3189 33.988 20.7211 33.988 21.1018C33.988 21.8509 34.3287 22.6507 35.2358 22.6507C35.4986 22.6507 35.8425 22.5794 36.0904 22.4529C36.1319 22.432 36.1688 22.4271 36.19 22.4779L36.2366 22.5843ZM37.7402 22.9254C36.9497 22.9254 36.6021 22.3643 36.6021 21.6473C36.6021 20.9388 37.0128 20.3746 37.7715 20.3746C38.563 20.3746 38.9198 20.9143 38.9198 21.6473C38.9198 22.3599 38.5045 22.9254 37.7402 22.9254ZM37.7715 20.6235C37.1442 20.6235 36.9497 21.1642 36.9497 21.6375C36.9497 22.1359 37.1281 22.6809 37.7457 22.6809C38.3574 22.6809 38.5731 22.167 38.5731 21.658C38.5727 21.1539 38.3731 20.6235 37.7715 20.6235ZM43.0108 22.7878C43.0108 22.8497 42.984 22.88 42.9273 22.88H42.7591C42.7015 22.88 42.6743 22.8497 42.6743 22.7878V21.3361C42.6743 20.9143 42.5516 20.628 42.0676 20.628C41.8418 20.628 41.5717 20.7358 41.3716 20.8783C41.4085 20.9998 41.4237 21.133 41.4237 21.2911V22.7878C41.4237 22.8497 41.3974 22.88 41.3398 22.88H41.1716C41.1139 22.88 41.0872 22.8497 41.0872 22.7878V21.3361C41.0872 20.9388 40.9876 20.628 40.5119 20.628C40.2487 20.628 39.9754 20.7714 39.7689 20.9544V22.7874C39.7689 22.8493 39.7417 22.8796 39.6841 22.8796H39.5158C39.4577 22.8796 39.4319 22.8493 39.4319 22.7874V20.5162C39.4319 20.4552 39.4577 20.4249 39.5158 20.4249H39.679C39.7375 20.4249 39.7638 20.4552 39.7638 20.5162L39.7693 20.6894C39.9966 20.4864 40.2971 20.3746 40.5861 20.3746C40.8563 20.3746 41.1347 20.4556 41.2822 20.6841C41.5237 20.4801 41.8524 20.3746 42.1515 20.3746C42.7692 20.3746 43.0108 20.726 43.0108 21.2911V22.7878ZM44.6559 22.9254C44.3881 22.9254 44.0968 22.819 43.9281 22.6097V23.8927C43.9281 23.9586 43.8861 23.9746 43.8285 23.9746H43.6755C43.6178 23.9746 43.5916 23.9443 43.5916 23.8833V20.99V20.5011C43.5916 20.4401 43.6178 20.4249 43.6755 20.4249H43.8068C43.8806 20.4249 43.9124 20.445 43.9124 20.5162V20.7153C44.0917 20.5064 44.4194 20.3741 44.7246 20.3741C45.3423 20.3741 45.794 20.7963 45.794 21.6371C45.794 22.3247 45.405 22.9254 44.6559 22.9254ZM44.6725 20.628C44.3936 20.628 44.0756 20.7919 43.9285 21.0056V22.2534C44.0498 22.4877 44.3466 22.6711 44.6356 22.6711C45.1616 22.6711 45.4478 22.2485 45.4478 21.638C45.4474 20.9437 45.1187 20.628 44.6725 20.628ZM48.6192 22.8297C48.6192 22.8698 48.6031 22.88 48.5556 22.88H48.356C48.1509 22.88 48.061 22.7108 48.061 22.5135V22.4476C47.9554 22.6965 47.5963 22.9259 47.2488 22.9259C46.5315 22.9259 46.2218 22.3247 46.2218 21.6937C46.2218 20.8582 46.7214 20.3746 47.3331 20.3746C47.5857 20.3746 47.8821 20.4761 48.0554 20.6948L48.0605 20.5069C48.0605 20.445 48.0969 20.4249 48.1546 20.4249H48.3131C48.3703 20.4249 48.3924 20.4552 48.3924 20.5162V22.3046C48.3924 22.4471 48.3924 22.5438 48.4141 22.5843C48.4348 22.6302 48.4708 22.6458 48.5233 22.6458H48.5602C48.6021 22.6458 48.6183 22.6551 48.6183 22.701V22.8297H48.6192ZM48.0564 21.0559C47.9195 20.7816 47.6332 20.628 47.3553 20.628C46.9008 20.628 46.5693 21.0203 46.5693 21.6732C46.5693 22.3189 46.9008 22.6502 47.2755 22.6502C47.6595 22.6502 47.9513 22.3443 48.0564 22.0343V21.0559ZM51.1895 22.7878C51.1895 22.8497 51.1632 22.88 51.1056 22.88H50.9373C50.8797 22.88 50.8525 22.8497 50.8525 22.7878V21.3361C50.8525 20.929 50.7525 20.628 50.2666 20.628C50.0044 20.628 49.6775 20.7767 49.4756 20.9544V22.7874C49.4756 22.8493 49.4485 22.8796 49.3918 22.8796H49.2235C49.165 22.8796 49.1382 22.8493 49.1382 22.7874V20.5162C49.1382 20.4552 49.165 20.4249 49.2235 20.4249H49.3862C49.4443 20.4249 49.4706 20.4552 49.4706 20.5162L49.4761 20.6894C49.72 20.4801 50.0569 20.3746 50.3565 20.3746C50.9733 20.3746 51.1895 20.7362 51.1895 21.2911V22.7878ZM53.8054 20.5069L52.7779 23.1851C52.5465 23.7813 52.3054 24 51.7767 24C51.7136 24 51.6348 23.9898 51.567 23.9795C51.5352 23.9746 51.5144 23.959 51.5144 23.9234V23.9087L51.5407 23.7457C51.5458 23.7003 51.5619 23.6901 51.5988 23.6901H51.6145C51.667 23.695 51.7509 23.7052 51.809 23.7052C52.0717 23.7052 52.2686 23.5925 52.3843 23.3133L52.547 22.9259L51.6149 20.4962C51.6048 20.4659 51.6099 20.4254 51.6578 20.4254H51.904C51.9505 20.4254 51.9772 20.4512 51.9883 20.4806L52.7318 22.5184L53.4647 20.4806C53.4809 20.4405 53.4961 20.4254 53.5486 20.4254H53.7538C53.798 20.4254 53.816 20.4356 53.816 20.4659C53.8151 20.4757 53.8105 20.4917 53.8054 20.5069Z" fill="#00110B" fill-opacity="0.47451"/>
</g>
<defs>
<clipPath id="clip0_50_893">
<rect width="56" height="24" fill="white"/>
</clipPath>
</defs>
</svg>
