<svg width="98" height="28" viewBox="0 0 98 28" fill="none" xmlns="http://www.w3.org/2000/svg">
<g clip-path="url(#clip0_50_870)">
<mask id="mask0_50_870" style="mask-type:luminance" maskUnits="userSpaceOnUse" x="0" y="0" width="98" height="28">
<path d="M97.5007 0H0V28H97.5007V0Z" fill="white"/>
</mask>
<g mask="url(#mask0_50_870)">
<mask id="mask1_50_870" style="mask-type:luminance" maskUnits="userSpaceOnUse" x="0" y="0" width="35" height="28">
<path d="M34.0193 0H0V28H34.0193V0Z" fill="white"/>
</mask>
<g mask="url(#mask1_50_870)">
<path d="M32.9778 5.34111L22.6567 8.05787C23.0742 9.93484 23.2951 11.9238 23.2951 14.0099C23.2951 16.0961 23.0742 18.0851 22.6567 19.9621L32.9778 22.6788C33.6373 19.968 33.9837 16.9993 33.9837 14.0099C33.9837 11.0206 33.6373 8.05049 32.9778 5.34111Z" fill="#00140A" fill-opacity="0.203922"/>
<path d="M6.84308 2.53279L0.0405273 14.0098L10.8093 6.18063C9.77464 4.67937 8.42985 3.44329 6.84308 2.53279Z" fill="#000A07" fill-opacity="0.627451"/>
<path d="M6.84308 25.4854L0.0405273 14.0085L10.8093 21.8375C9.77464 23.3403 8.42985 24.5749 6.84308 25.4854Z" fill="#000A07" fill-opacity="0.627451"/>
<path d="M19.2564 0.0373383L0.0407715 14.01L22.6569 8.05792C21.9959 5.07748 20.8356 2.38134 19.2564 0.0373383Z" fill="#00110B" fill-opacity="0.47451"/>
<path d="M19.2562 27.9811L0.0405273 14.0098L22.6567 19.962C21.9956 22.9409 20.8354 25.6371 19.2562 27.9811Z" fill="#00110B" fill-opacity="0.47451"/>
<path d="M23.295 14.0098C23.295 11.9236 23.0742 9.93467 22.6567 8.05775L0.0405273 14.0098L22.6567 19.9619C23.0757 18.082 23.295 16.099 23.295 14.0098Z" fill="white"/>
</g>
<path d="M60.2891 8.40743L57.8594 10.1926L57.7685 10.0605C56.6341 8.43295 54.7814 7.40966 52.5548 7.40966C48.741 7.40966 45.9391 10.1272 45.9391 14.0906C45.9391 18.0534 48.7392 20.7712 52.5548 20.7712C54.7694 20.7712 56.5958 19.7876 57.7565 18.1328L57.8594 17.9879L60.2995 19.7807L60.2103 19.9041C58.6231 22.2005 55.8233 23.6194 52.5548 23.6194C46.8201 23.6194 42.7791 19.5778 42.7791 14.0906C42.7791 8.60338 46.8201 4.56125 52.5548 4.56125C55.8758 4.56293 58.8224 6.01984 60.2891 8.40743Z" fill="#00110B" fill-opacity="0.47451"/>
<path d="M65.1815 23.2792H62.3811V4.38058H65.1815V23.2792Z" fill="#00110B" fill-opacity="0.47451"/>
<path d="M80.7497 23.2792H77.9619V21.7704C77.081 22.885 75.761 23.6078 73.9467 23.6078C70.3727 23.6078 67.5586 20.8384 67.5586 16.9938C67.5586 13.1481 70.3727 10.3805 73.9467 10.3805C75.761 10.3805 77.081 11.1148 77.9619 12.2312V10.7091H80.7497V23.2792ZM70.4285 16.9921C70.4285 19.1976 71.8826 21.021 74.2823 21.021C76.5894 21.021 78.1366 19.2886 78.1366 16.9921C78.1366 14.6963 76.5894 12.9638 74.2823 12.9638C71.8826 12.9638 70.4285 14.7873 70.4285 16.9921Z" fill="#00110B" fill-opacity="0.47451"/>
<path d="M92.5283 10.7328L91.8604 13.4489C91.2729 13.1464 90.4199 12.9899 89.74 12.9899C87.9661 12.9899 86.6987 14.2227 86.6987 16.3627V23.2792H83.9109V10.7074H86.6708V12.1245C87.5117 10.9305 88.8175 10.3787 90.3783 10.3787C91.233 10.3787 91.8867 10.4819 92.5283 10.7328Z" fill="#00110B" fill-opacity="0.47451"/>
<path d="M97.5006 6.36215C97.5006 7.45097 96.634 8.27821 95.5275 8.27821C94.421 8.27821 93.5801 7.45097 93.5801 6.36215C93.5801 5.27337 94.421 4.42023 95.5275 4.42023C96.634 4.42023 97.5006 5.27337 97.5006 6.36215ZM96.9395 23.2792H94.1396V10.7074H96.9395V23.2792Z" fill="#00110B" fill-opacity="0.47451"/>
</g>
</g>
<defs>
<clipPath id="clip0_50_870">
<rect width="98" height="28" fill="white"/>
</clipPath>
</defs>
</svg>
