<svg width="88" height="30" viewBox="0 0 88 30" fill="none" xmlns="http://www.w3.org/2000/svg">
<path d="M27.1561 25.359C28.918 25.359 29.8802 24.1737 29.8802 22.5172V14.0634H33.6303V22.71C33.595 26.5156 30.5737 28.0079 27.1561 28.0079C23.7386 28.0079 20.7243 26.5156 20.6819 22.71V14.0634H24.432V22.5172C24.4391 24.1737 25.3943 25.359 27.1561 25.359Z" fill="#00110B" fill-opacity="0.47451"/>
<path d="M10.9671 27.7223H14.7172V16.7124H18.9201V14.0634H6.76416V16.7124H10.9671V27.7223Z" fill="#00110B" fill-opacity="0.47451"/>
<path d="M19.9815 7.40885C19.0687 7.70159 18.1206 7.46596 18.1276 6.23073C18.1276 4.34576 22.5075 2.76781 23.116 1.1256C23.2646 0.718612 23.2787 0.375891 23.0806 0.390171C22.9391 0.397311 23.0523 0.604369 22.741 0.911392C20.9296 2.74639 17.8871 2.73925 15.5521 3.79598C14.0237 4.48857 9.53777 6.6163 10.5708 11.3644C10.6204 11.5929 10.7548 12.3426 10.8892 12.3426C11.0449 12.3426 11.0449 11.8928 11.0449 11.3502C11.0095 8.5227 14.328 7.73729 15.4106 5.88801C15.5379 5.66667 15.7644 5.35965 15.8139 5.50245C15.8422 5.57385 15.821 5.67381 15.7785 5.87373C15.4389 7.39456 13.8681 8.36562 14.3138 9.4509C14.8941 10.8575 16.5568 9.8079 17.0734 8.90112C17.2078 8.65121 17.2856 8.49413 17.3776 8.52269C17.4484 8.54412 17.4413 8.82971 17.3988 9.08675C17.1229 10.7218 16.7549 11.6358 15.5662 12.5711C15.1841 12.871 14.5898 12.9281 14.6676 13.1566C14.6889 13.2137 14.9436 13.2066 15.1488 13.1852C18.3045 12.9781 20.9437 9.22956 21.6442 6.77338C21.715 6.60202 21.7362 6.4378 21.6655 6.38068C21.5735 6.30928 21.432 6.4735 21.2904 6.60202C20.9296 6.93046 20.4343 7.26605 19.9815 7.40885Z" fill="#00110B" fill-opacity="0.47451"/>
<path d="M52.0062 22.0674C52.0203 20.5822 52.9048 19.2471 54.3907 19.2471C56.1171 19.2471 56.7893 20.4394 56.7893 22.0674H52.0062ZM58.6714 23.3169V22.4244C58.6714 19.7968 57.1926 17.9404 54.5251 17.9404C51.5462 17.9404 50.1523 20.2681 50.1523 23.0527C50.1523 25.8516 51.3552 28.0151 54.3765 28.0151C56.6266 28.0151 58.2752 26.9369 58.5582 24.7806H56.6832C56.478 26.1586 55.7846 26.7084 54.3977 26.7084C52.5793 26.7084 51.9708 25.0733 51.9708 23.324H58.6714V23.3169Z" fill="#00110B" fill-opacity="0.47451"/>
<path d="M62.6122 14.0634H60.8291V27.7223H62.6122V14.0634Z" fill="#00110B" fill-opacity="0.47451"/>
<path d="M68.2021 27.7223V19.4756H70.3743V18.2261H68.2021V16.6909C68.2021 15.5914 68.7257 15.4057 69.7375 15.4057C70.0347 15.4057 70.3389 15.4414 70.6361 15.4629V13.9706C70.2186 13.8778 69.7941 13.7778 69.3625 13.7778C67.6785 13.7778 66.419 14.6346 66.419 16.4482V18.2261H64.5793V19.4756H66.419V27.7223H68.2021Z" fill="#00110B" fill-opacity="0.47451"/>
<path d="M71.3933 18.2261V19.4756H73.0066V25.5303C73.0066 26.7941 73.0278 28.0079 75.6741 28.0079C76.0845 28.0079 76.4736 27.9722 76.8911 27.8937V26.5157C76.601 26.5871 76.2331 26.6299 75.95 26.6299C75.3132 26.6299 74.7896 26.3086 74.7896 25.6303V19.4827H76.9619V18.2332H74.7896V15.6414L73.0066 16.2054V18.2332L71.3933 18.2261Z" fill="#00110B" fill-opacity="0.47451"/>
<path d="M37.3806 27.7223H42.0293C47.8172 27.7223 48.4257 22.7742 48.4257 20.8893C48.4257 19.0043 47.8172 14.0562 42.0293 14.0562H37.3806V27.7223ZM39.2557 15.6913H42.0293C45.1568 15.6913 46.4587 18.0761 46.4587 20.8964C46.4587 23.7167 45.1568 26.1015 42.0293 26.1015H39.2557V15.6913Z" fill="#00110B" fill-opacity="0.47451"/>
</svg>
